# xmcd
#
# Track frame offsets:
# 150
# 20334
# 35409
# 46738
# 59383
# 78721
# 90616
# 103338
# 116651
# 138254
# 153928
#
# Disc length: 2201 seconds
#
#
# Revision: 0
# Processed by: cddbd v1.5.1PL0 Copyright (c) Steve Scherf et al.
# Submitted via: FreeRIP 2.60 
#
DISCID=8908970b
DTITLE=The Justice Family Gospel Singers - The Man Of Galilee
DYEAR=2000
DGENRE=Gospel
TTITLE0=I'll Be Back
TTITLE1=God Of The Mountions
TTITLE2=One Little Lost Lamb
TTITLE3=Hold On
TTITLE4=Nearer To Thee
TTITLE5=I'll Fly Away
TTITLE6=The Man Of Galilee
TTITLE7=So Much To Thank Him For
TTITLE8=Beulah Land
TTITLE9=All Mighty god
TTITLE10=Had It Not Been
EXTD=
EXTT0=
EXTT1=
EXTT2=
EXTT3=
EXTT4=
EXTT5=
EXTT6=
EXTT7=
EXTT8=
EXTT9=
EXTT10=
PLAYORDER=
